<svg xmlns="http://www.w3.org/2000/svg" width="660" height="350">
  <style>text { font-family: monospace; font-size: 11px; }</style>
  <rect width="660" height="350" rx="8" fill="#1E1E1E"/>
  <text x="20" y="28" fill="#C0BFBC" font-size="14" font-weight="bold">yaru-dark-ish palette</text>
  <rect x="20" y="50" width="80" height="40" rx="4" fill="#181818" stroke="#3D3846" stroke-width="1"/>
  <text x="24" y="65" fill="#C0BFBC">darker</text>
  <text x="24" y="80" fill="#C0BFBC" opacity="0.7">#181818</text>
  <rect x="110" y="50" width="80" height="40" rx="4" fill="#1E1E1E" stroke="#3D3846" stroke-width="1"/>
  <text x="114" y="65" fill="#C0BFBC">darkbg</text>
  <text x="114" y="80" fill="#C0BFBC" opacity="0.7">#1E1E1E</text>
  <rect x="200" y="50" width="80" height="40" rx="4" fill="#262626"/>
  <text x="204" y="65" fill="#C0BFBC">bg</text>
  <text x="204" y="80" fill="#C0BFBC" opacity="0.7">#262626</text>
  <rect x="290" y="50" width="80" height="40" rx="4" fill="#2A2A2A"/>
  <text x="294" y="65" fill="#C0BFBC">surface0</text>
  <text x="294" y="80" fill="#C0BFBC" opacity="0.7">#2A2A2A</text>
  <rect x="380" y="50" width="80" height="40" rx="4" fill="#303030"/>
  <text x="384" y="65" fill="#C0BFBC">surface1</text>
  <text x="384" y="80" fill="#C0BFBC" opacity="0.7">#303030</text>
  <rect x="470" y="50" width="80" height="40" rx="4" fill="#3D3846"/>
  <text x="474" y="65" fill="#C0BFBC">surface2</text>
  <text x="474" y="80" fill="#C0BFBC" opacity="0.7">#3D3846</text>
  <rect x="560" y="50" width="80" height="40" rx="4" fill="#504E55"/>
  <text x="564" y="65" fill="#C0BFBC">gray</text>
  <text x="564" y="80" fill="#C0BFBC" opacity="0.7">#504E55</text>
  <rect x="20" y="120" width="80" height="40" rx="4" fill="#303030"/>
  <text x="24" y="135" fill="#C0BFBC">black</text>
  <text x="24" y="150" fill="#C0BFBC" opacity="0.7">#303030</text>
  <rect x="110" y="120" width="80" height="40" rx="4" fill="#5E5C64"/>
  <text x="114" y="135" fill="#C0BFBC">brblack</text>
  <text x="114" y="150" fill="#C0BFBC" opacity="0.7">#5E5C64</text>
  <rect x="200" y="120" width="80" height="40" rx="4" fill="#9A9996"/>
  <text x="204" y="135" fill="#1E1E1E">subtext0</text>
  <text x="204" y="150" fill="#1E1E1E" opacity="0.7">#9A9996</text>
  <rect x="290" y="120" width="80" height="40" rx="4" fill="#B0AFAC"/>
  <text x="294" y="135" fill="#1E1E1E">subtext1</text>
  <text x="294" y="150" fill="#1E1E1E" opacity="0.7">#B0AFAC</text>
  <rect x="380" y="120" width="80" height="40" rx="4" fill="#C0BFBC"/>
  <text x="384" y="135" fill="#1E1E1E">fg</text>
  <text x="384" y="150" fill="#1E1E1E" opacity="0.7">#C0BFBC</text>
  <rect x="470" y="120" width="80" height="40" rx="4" fill="#C0BFBC"/>
  <text x="474" y="135" fill="#1E1E1E">white</text>
  <text x="474" y="150" fill="#1E1E1E" opacity="0.7">#C0BFBC</text>
  <rect x="560" y="120" width="80" height="40" rx="4" fill="#FFFFFF"/>
  <text x="564" y="135" fill="#1E1E1E">brwhite</text>
  <text x="564" y="150" fill="#1E1E1E" opacity="0.7">#FFFFFF</text>
  <rect x="20" y="190" width="80" height="40" rx="4" fill="#EA485C"/>
  <text x="24" y="205" fill="#C0BFBC">red</text>
  <text x="24" y="220" fill="#C0BFBC" opacity="0.7">#EA485C</text>
  <rect x="110" y="190" width="80" height="40" rx="4" fill="#FF87AF"/>
  <text x="114" y="205" fill="#1E1E1E">brred</text>
  <text x="114" y="220" fill="#1E1E1E" opacity="0.7">#FF87AF</text>
  <rect x="200" y="190" width="80" height="40" rx="4" fill="#E95420"/>
  <text x="204" y="205" fill="#C0BFBC">orange</text>
  <text x="204" y="220" fill="#C0BFBC" opacity="0.7">#E95420</text>
  <rect x="290" y="190" width="80" height="40" rx="4" fill="#FFAF87"/>
  <text x="294" y="205" fill="#1E1E1E">yellow</text>
  <text x="294" y="220" fill="#1E1E1E" opacity="0.7">#FFAF87</text>
  <rect x="380" y="190" width="80" height="40" rx="4" fill="#FBC16A"/>
  <text x="384" y="205" fill="#1E1E1E">bryellow</text>
  <text x="384" y="220" fill="#1E1E1E" opacity="0.7">#FBC16A</text>
  <rect x="470" y="190" width="80" height="40" rx="4" fill="#AFD787"/>
  <text x="474" y="205" fill="#1E1E1E">green</text>
  <text x="474" y="220" fill="#1E1E1E" opacity="0.7">#AFD787</text>
  <rect x="560" y="190" width="80" height="40" rx="4" fill="#34B948"/>
  <text x="564" y="205" fill="#C0BFBC">brgreen</text>
  <text x="564" y="220" fill="#C0BFBC" opacity="0.7">#34B948</text>
  <rect x="20" y="260" width="80" height="40" rx="4" fill="#75d3f4"/>
  <text x="24" y="275" fill="#1E1E1E">cyan</text>
  <text x="24" y="290" fill="#1E1E1E" opacity="0.7">#75d3f4</text>
  <rect x="110" y="260" width="80" height="40" rx="4" fill="#87AFFF"/>
  <text x="114" y="275" fill="#1E1E1E">brcyan</text>
  <text x="114" y="290" fill="#1E1E1E" opacity="0.7">#87AFFF</text>
  <rect x="200" y="260" width="80" height="40" rx="4" fill="#87AFFF"/>
  <text x="204" y="275" fill="#1E1E1E">blue</text>
  <text x="204" y="290" fill="#1E1E1E" opacity="0.7">#87AFFF</text>
  <rect x="290" y="260" width="80" height="40" rx="4" fill="#19B6EE"/>
  <text x="294" y="275" fill="#1E1E1E">brblue</text>
  <text x="294" y="290" fill="#1E1E1E" opacity="0.7">#19B6EE</text>
  <rect x="380" y="260" width="80" height="40" rx="4" fill="#D7AFFF"/>
  <text x="384" y="275" fill="#1E1E1E">magenta</text>
  <text x="384" y="290" fill="#1E1E1E" opacity="0.7">#D7AFFF</text>
  <rect x="470" y="260" width="80" height="40" rx="4" fill="#c590bf"/>
  <text x="474" y="275" fill="#1E1E1E">brmag</text>
  <text x="474" y="290" fill="#1E1E1E" opacity="0.7">#c590bf</text>
</svg>
